# xmcd
#
# Track frame offsets: 
#        150
#        16997
#        34890
#        53585
#        69575
#        87977
#        105164
#        121540
#        139727
#        157382
#        177598
#
# Disc length: 2629 seconds
#
# Revision: 0
# Processed by: cddbd v1.5.2PL0 Copyright (c) Steve Scherf et al.
# Submitted via: ExactAudioCopy v0.99pb5
#
DISCID=8c0a430b
DTITLE=StMorritz - Tusenvis av ting
DYEAR=2010
DGENRE=Pop
TTITLE0=Tusenvis av ting
TTITLE1=Prøve meg igjen
TTITLE2=Allting blei stilt
TTITLE3=Følg etter meg
TTITLE4=Fra dør til dør
TTITLE5=Oss to
TTITLE6=For en gangs skyld
TTITLE7=Steder der vi satt
TTITLE8=Stjerner ser meg i natt
TTITLE9=Om hundre år
TTITLE10=Hvis jeg hadde kunnet
EXTD=
EXTT0=
EXTT1=
EXTT2=
EXTT3=
EXTT4=
EXTT5=
EXTT6=
EXTT7=
EXTT8=
EXTT9=
EXTT10=
PLAYORDER=
